<svg width="22" height="29" viewBox="0 0 22 29" fill="none" xmlns="http://www.w3.org/2000/svg">
  <path d="M3.1745 3.0425C5.34004 1.04925 7.94855 0.0526314 11 0.0526314C14.0515 0.0526314 16.6353 1.04925 18.7517 3.0425C20.9172 4.99045 22 7.36875 22 10.1774C22 11.5817 21.6063 13.1899 20.8188 15.002C20.0805 16.814 19.17 18.5128 18.0872 20.0983C17.0045 21.6839 15.9217 23.1788 14.8389 24.5831C13.8054 25.9422 12.9195 27.0294 12.1812 27.8448L11.6268 28.387C11.2831 28.7231 10.7298 28.7105 10.3952 28.3654C10.221 28.1857 10.0289 27.9896 9.81879 27.7769C9.32662 27.2333 8.44072 26.1913 7.16107 24.6511C5.88143 23.0656 4.74944 21.548 3.7651 20.0983C2.82998 18.6034 1.96868 16.9273 1.18121 15.0699C0.393736 13.2126 0 11.5817 0 10.1774C0 7.36875 1.05817 4.99045 3.1745 3.0425Z" fill="#2E2E2E" />
  <path d="M6.70888 6.9H10.8429C11.8309 6.9 12.7019 7.09067 13.4559 7.472C14.2186 7.84467 14.8079 8.37333 15.2239 9.058C15.6486 9.74267 15.8609 10.54 15.8609 11.45C15.8609 12.36 15.6486 13.1573 15.2239 13.842C14.8079 14.5267 14.2186 15.0597 13.4559 15.441C12.7019 15.8137 11.8309 16 10.8429 16H6.70888V6.9ZM10.7389 14.271C11.6489 14.271 12.3725 14.0197 12.9099 13.517C13.4559 13.0057 13.7289 12.3167 13.7289 11.45C13.7289 10.5833 13.4559 9.89867 12.9099 9.396C12.3725 8.88467 11.6489 8.629 10.7389 8.629H8.81488V14.271H10.7389Z" fill="white" />
</svg>